<?xml version="1.0" encoding="utf-8"?>
<!-- Generator: Adobe Illustrator 16.0.3, SVG Export Plug-In . SVG Version: 6.00 Build 0)  -->
<!DOCTYPE svg PUBLIC "-//W3C//DTD SVG 1.1//EN" "http://www.w3.org/Graphics/SVG/1.1/DTD/svg11.dtd">
<svg version="1.1" id="Layer_1" xmlns="http://www.w3.org/2000/svg" xmlns:xlink="http://www.w3.org/1999/xlink" x="0px" y="0px"
	 width="16px" height="16px" viewBox="0 0 16 16" enable-background="new 0 0 16 16" xml:space="preserve">
<g>
	<defs>
		<rect id="SVGID_1_" width="16" height="16"/>
	</defs>
	<clipPath id="SVGID_2_">
		<use xlink:href="#SVGID_1_"  overflow="visible"/>
	</clipPath>
	<path clip-path="url(#SVGID_2_)" fill="#667380" d="M3.683,9.399c0.344,0.317,0.819,0.474,1.426,0.474
		c0.499,0,0.931-0.098,1.297-0.295C6.772,9.38,7.107,9.046,7.408,8.573c0.465,0.867,1.236,1.3,2.31,1.3
		c0.377,0,0.702-0.03,0.98-0.091c0.277-0.063,0.575-0.163,0.896-0.305V8.651c-0.312,0.145-0.615,0.25-0.907,0.315
		s-0.607,0.097-0.945,0.097c-1.169,0-1.768-0.734-1.798-2.204h3.913V6.262c0-0.825-0.216-1.487-0.647-1.983s-1.005-0.745-1.72-0.745
		c-0.409,0-0.772,0.089-1.09,0.268C8.08,3.979,7.823,4.233,7.625,4.56C7.473,4.208,7.243,3.95,6.937,3.788
		C6.629,3.625,6.234,3.545,5.751,3.545c-0.365,0-0.732,0.049-1.103,0.147C4.278,3.792,3.956,3.917,3.68,4.069l0.29,0.708
		C4.576,4.465,5.148,4.31,5.683,4.31c0.443,0,0.773,0.114,0.988,0.343c0.216,0.229,0.324,0.583,0.324,1.063v0.379L5.969,6.129
		C5.023,6.159,4.32,6.34,3.859,6.673C3.397,7.006,3.167,7.472,3.167,8.071C3.167,8.64,3.339,9.083,3.683,9.399 M4.596,7.142
		C4.9,6.939,5.398,6.823,6.091,6.793l0.882-0.04v0.552c0,0.573-0.157,1.017-0.47,1.331C6.191,8.952,5.766,9.109,5.226,9.109
		c-0.327,0-0.59-0.083-0.79-0.248C4.237,8.695,4.138,8.436,4.138,8.082C4.138,7.658,4.29,7.344,4.596,7.142 M10.506,4.778
		c0.238,0.313,0.357,0.759,0.357,1.339H7.967c0.04-0.587,0.189-1.036,0.448-1.345C8.675,4.464,9.028,4.31,9.479,4.31
		C9.925,4.31,10.267,4.465,10.506,4.778"/>
	<path clip-path="url(#SVGID_2_)" fill-rule="evenodd" clip-rule="evenodd" fill="#667380" d="M13.714,0H2.286
		C1.023,0,0,1.023,0,2.286v11.429C0,14.977,1.023,16,2.286,16h11.428C14.977,16,16,14.977,16,13.714V2.286
		C16,1.023,14.977,0,13.714,0 M13.143,10.857c0,1.894-1.534,2.286-3.429,2.286H5.143c-1.894,0-3.429-1.535-3.429-3.429V5.143
		c0-1.894,1.535-3.429,3.429-3.429h4.571c1.895,0,3.429,1.535,3.429,3.429V10.857z"/>
</g>
</svg>
