<?xml version="1.0" encoding="utf-8"?>
<!-- Generator: Adobe Illustrator 17.0.1, SVG Export Plug-In . SVG Version: 6.00 Build 0)  -->
<!DOCTYPE svg PUBLIC "-//W3C//DTD SVG 1.1//EN" "http://www.w3.org/Graphics/SVG/1.1/DTD/svg11.dtd">
<svg version="1.1" id="Layer_1" xmlns="http://www.w3.org/2000/svg" xmlns:xlink="http://www.w3.org/1999/xlink" x="0px" y="0px"
	 width="28px" height="28px" viewBox="0 0 28 28" enable-background="new 0 0 28 28" xml:space="preserve">
<path fill="#667380" d="M6.445,16.449c0.602,0.553,1.434,0.83,2.495,0.83c0.873,0,1.629-0.173,2.271-0.518
	c0.641-0.345,1.226-0.931,1.753-1.758c0.814,1.517,2.162,2.276,4.043,2.276c0.657,0,1.229-0.054,1.714-0.161
	c0.485-0.108,1.008-0.285,1.568-0.532V15.14c-0.547,0.254-1.076,0.438-1.587,0.552c-0.511,0.114-1.063,0.171-1.656,0.171
	c-2.045,0-3.093-1.286-3.145-3.858h6.847V10.96c0-1.445-0.378-2.603-1.133-3.472c-0.755-0.869-1.758-1.304-3.008-1.304
	c-0.716,0-1.353,0.156-1.909,0.469c-0.557,0.313-1.008,0.755-1.353,1.328c-0.267-0.619-0.669-1.069-1.206-1.353
	c-0.537-0.283-1.229-0.425-2.075-0.425c-0.638,0-1.281,0.086-1.929,0.259C7.486,6.635,6.922,6.854,6.44,7.121l0.508,1.24
	c1.061-0.547,2.061-0.82,2.998-0.82c0.775,0,1.351,0.2,1.729,0.601c0.377,0.4,0.566,1.021,0.566,1.86v0.664l-1.797,0.059
	c-1.654,0.052-2.884,0.37-3.692,0.952c-0.807,0.583-1.211,1.398-1.211,2.447C5.541,15.12,5.843,15.895,6.445,16.449z M8.042,12.498
	c0.534-0.355,1.406-0.558,2.617-0.611l1.543-0.068v0.967c0,1.003-0.274,1.779-0.82,2.329c-0.547,0.55-1.293,0.825-2.237,0.825
	c-0.573,0-1.034-0.145-1.382-0.435c-0.348-0.29-0.523-0.744-0.523-1.363C7.241,13.401,7.508,12.853,8.042,12.498z M18.385,8.362
	c0.417,0.547,0.625,1.328,0.625,2.344h-5.069c0.071-1.029,0.334-1.813,0.786-2.354c0.452-0.54,1.073-0.811,1.861-0.811
	C17.369,7.541,17.968,7.815,18.385,8.362z"/>
<path fill-rule="evenodd" clip-rule="evenodd" fill="#667380" d="M24,0H4C1.791,0,0,1.791,0,4v20c0,2.209,1.791,4,4,4h20
	c2.209,0,4-1.791,4-4V4C28,1.791,26.209,0,24,0z M23,19c0,3.314-2.686,4-6,4H9c-3.314,0-6-2.686-6-6V9c0-3.314,2.686-6,6-6h8
	c3.314,0,6,2.686,6,6V19z"/>
</svg>
