<?xml version="1.0" encoding="utf-8"?>
<!-- Generator: Adobe Illustrator 16.0.3, SVG Export Plug-In . SVG Version: 6.00 Build 0)  -->
<!DOCTYPE svg PUBLIC "-//W3C//DTD SVG 1.1//EN" "http://www.w3.org/Graphics/SVG/1.1/DTD/svg11.dtd">
<svg version="1.1" id="Layer_1" xmlns="http://www.w3.org/2000/svg" xmlns:xlink="http://www.w3.org/1999/xlink" x="0px" y="0px"
	 width="16px" height="16px" viewBox="0 0 16 16" enable-background="new 0 0 16 16" xml:space="preserve">
<g>
	<path fill="#667380" d="M11.309,7.01c-0.008-0.064-0.017-0.125-0.027-0.185c-0.012-0.06-0.024-0.117-0.039-0.172
		s-0.031-0.109-0.05-0.16s-0.039-0.101-0.062-0.148c-0.021-0.047-0.046-0.092-0.071-0.135c-0.026-0.043-0.054-0.084-0.083-0.123
		s-0.062-0.075-0.095-0.109c-0.032-0.034-0.067-0.065-0.104-0.095s-0.074-0.056-0.113-0.08c-0.04-0.024-0.081-0.046-0.123-0.065
		s-0.087-0.036-0.133-0.051c-0.046-0.014-0.093-0.026-0.142-0.036s-0.1-0.017-0.151-0.021s-0.104-0.007-0.16-0.007
		s-0.11,0.002-0.164,0.007C9.739,5.634,9.688,5.641,9.638,5.65S9.539,5.672,9.492,5.686c-0.047,0.015-0.093,0.031-0.137,0.05
		C9.312,5.756,9.27,5.777,9.229,5.801S9.147,5.852,9.109,5.88s-0.074,0.06-0.11,0.093C8.964,6.007,8.93,6.043,8.897,6.082
		S8.836,6.16,8.807,6.203C8.778,6.246,8.751,6.291,8.726,6.337C8.7,6.385,8.677,6.434,8.654,6.485
		C8.633,6.536,8.612,6.59,8.594,6.646S8.559,6.759,8.543,6.819c-0.015,0.06-0.028,0.123-0.04,0.187
		c-0.012,0.064-0.021,0.131-0.03,0.2C8.465,7.273,8.465,7.273,8.465,7.273C8.458,7.353,8.534,7.417,8.633,7.417s0.261,0,0.359,0
		c0.1,0,0.262,0,0.361,0c0.099,0,0.261,0,0.359,0s0.261,0,0.359,0s0.261,0,0.359,0s0.261,0,0.359,0s0.261,0,0.359,0
		c0.1,0,0.18-0.064,0.179-0.142c0,0,0,0-0.004-0.068S11.316,7.074,11.309,7.01z"/>
</g>
<g>
	<path fill="#667380" d="M7.301,8.058c-0.03,0.001-0.08,0.003-0.109,0.005c-0.03,0.001-0.08,0.003-0.11,0.005
		c-0.03,0.001-0.079,0.003-0.109,0.005s-0.08,0.003-0.109,0.005c-0.03,0.001-0.08,0.003-0.11,0.005
		c-0.03,0.001-0.079,0.003-0.109,0.005S6.512,8.094,6.419,8.099c0,0,0,0-0.08,0.006s-0.157,0.014-0.23,0.023
		c-0.074,0.009-0.145,0.02-0.213,0.031C5.827,8.171,5.763,8.184,5.701,8.198S5.58,8.229,5.524,8.246
		C5.468,8.263,5.416,8.281,5.366,8.301s-0.097,0.041-0.14,0.063C5.182,8.387,5.141,8.41,5.103,8.436
		C5.065,8.461,5.029,8.487,4.996,8.516S4.932,8.575,4.903,8.607S4.849,8.673,4.825,8.708C4.801,8.744,4.78,8.781,4.761,8.82
		s-0.036,0.079-0.05,0.122S4.685,9.028,4.675,9.074S4.659,9.168,4.654,9.217C4.649,9.267,4.647,9.317,4.647,9.37
		c0,0.044,0.001,0.086,0.005,0.127c0.003,0.041,0.007,0.081,0.014,0.119s0.014,0.075,0.023,0.11s0.021,0.069,0.033,0.101
		S4.748,9.89,4.763,9.919c0.015,0.029,0.032,0.057,0.051,0.084c0.019,0.026,0.039,0.051,0.061,0.075
		c0.021,0.024,0.045,0.046,0.07,0.066c0.024,0.021,0.05,0.04,0.077,0.058c0.026,0.018,0.054,0.034,0.083,0.05
		c0.029,0.015,0.059,0.029,0.089,0.042s0.062,0.024,0.095,0.035s0.066,0.019,0.101,0.027s0.07,0.014,0.107,0.02
		c0.037,0.005,0.074,0.009,0.113,0.011s0.079,0.004,0.119,0.004c0.067,0,0.132-0.002,0.196-0.007s0.125-0.012,0.186-0.021
		s0.118-0.022,0.175-0.037s0.111-0.032,0.164-0.051s0.104-0.042,0.153-0.066c0.049-0.024,0.097-0.051,0.143-0.081
		s0.09-0.061,0.132-0.095s0.083-0.071,0.122-0.11c0.039-0.039,0.076-0.08,0.11-0.123C7.142,9.755,7.174,9.71,7.203,9.663
		c0.029-0.047,0.056-0.096,0.081-0.147c0.024-0.051,0.046-0.104,0.065-0.16S7.385,9.244,7.4,9.185s0.027-0.12,0.037-0.183
		c0.01-0.063,0.017-0.128,0.021-0.196c0.005-0.067,0.005-0.067,0.005-0.067c0.001-0.077,0.002-0.156,0.002-0.175s0-0.05,0-0.068
		s0-0.05,0-0.068s0-0.05,0-0.068c0-0.019,0-0.05,0-0.069c0-0.019,0-0.05,0-0.068s0-0.05,0-0.068s0-0.05,0-0.068
		S7.44,8.052,7.41,8.053C7.38,8.055,7.331,8.057,7.301,8.058z"/>
</g>
<g>
	<path fill="#667380" d="M3,0C1.35,0,0,1.35,0,3v10c0,1.65,1.35,3,3,3h10c1.65,0,3-1.35,3-3V3c0-1.65-1.35-3-3-3H3z M12.317,7.599
		c0,0.021,0,0.054,0,0.074s0,0.054,0,0.074s0,0.054,0,0.074c0,0.021,0,0.054,0,0.075c0,0.021,0,0.054,0,0.074s0,0.054,0,0.074
		s0,0.054,0,0.074s-0.109,0.037-0.243,0.037c-0.133,0-0.352,0-0.485,0s-0.353,0-0.486,0s-0.353,0-0.486,0s-0.353,0-0.486,0
		s-0.353,0-0.485,0c-0.134,0-0.353,0-0.486,0c-0.133,0-0.352,0-0.485,0S8.438,8.315,8.446,8.51c0,0,0,0,0.021,0.16
		c0.021,0.16,0.052,0.308,0.091,0.444C8.597,9.251,8.645,9.376,8.701,9.49c0.058,0.114,0.123,0.216,0.197,0.308
		s0.157,0.171,0.25,0.24c0.092,0.068,0.193,0.125,0.303,0.171c0.109,0.045,0.229,0.08,0.355,0.103
		c0.128,0.022,0.264,0.034,0.409,0.034c0.042,0,0.083,0,0.124-0.001s0.082-0.002,0.123-0.005c0.041-0.002,0.081-0.004,0.121-0.007
		c0.039-0.003,0.079-0.007,0.118-0.011c0.04-0.004,0.078-0.008,0.117-0.014c0.038-0.005,0.076-0.011,0.114-0.017
		c0.037-0.006,0.074-0.012,0.111-0.019s0.074-0.014,0.11-0.022s0.073-0.017,0.11-0.026c0.036-0.009,0.073-0.019,0.11-0.03
		c0.036-0.011,0.073-0.022,0.111-0.034c0.037-0.012,0.075-0.024,0.112-0.038s0.075-0.027,0.113-0.041
		c0.037-0.015,0.076-0.029,0.114-0.045s0.076-0.031,0.115-0.048c0.038-0.017,0.038-0.017,0.038-0.017
		c0.042-0.02,0.077-0.012,0.077,0.016s0,0.074,0,0.103s0,0.074,0,0.103s0,0.074,0,0.103s0,0.074,0,0.103s0,0.074,0,0.103
		s0,0.074,0,0.103s0,0.074,0,0.103s-0.035,0.067-0.079,0.086c0,0,0,0-0.039,0.016c-0.039,0.017-0.078,0.032-0.116,0.047
		c-0.038,0.015-0.077,0.029-0.114,0.043c-0.038,0.014-0.075,0.027-0.112,0.04c-0.038,0.013-0.074,0.024-0.111,0.036
		c-0.036,0.011-0.072,0.022-0.108,0.032c-0.035,0.01-0.071,0.02-0.106,0.028c-0.035,0.009-0.069,0.018-0.104,0.025
		c-0.034,0.008-0.069,0.015-0.105,0.021c-0.036,0.006-0.072,0.013-0.11,0.018c-0.037,0.005-0.075,0.011-0.114,0.016
		s-0.078,0.009-0.119,0.013s-0.082,0.007-0.124,0.01s-0.085,0.005-0.129,0.007s-0.088,0.003-0.133,0.004
		c-0.046,0.001-0.092,0.001-0.139,0.001c-0.134,0-0.262-0.007-0.386-0.02c-0.124-0.014-0.244-0.034-0.358-0.061
		s-0.225-0.061-0.33-0.101c-0.104-0.041-0.205-0.087-0.301-0.141s-0.187-0.114-0.273-0.182c-0.086-0.067-0.167-0.142-0.244-0.222
		s-0.148-0.168-0.216-0.262c-0.066-0.094-0.066-0.094-0.066-0.094C7.951,9.952,7.863,9.91,7.822,9.974c0,0,0,0-0.039,0.054
		c-0.038,0.054-0.077,0.107-0.117,0.157s-0.079,0.098-0.12,0.144c-0.041,0.045-0.082,0.089-0.123,0.131s-0.083,0.081-0.126,0.119
		c-0.042,0.037-0.085,0.072-0.129,0.105s-0.087,0.064-0.132,0.093s-0.089,0.055-0.135,0.08c-0.046,0.025-0.092,0.047-0.14,0.069
		c-0.048,0.021-0.097,0.041-0.146,0.06s-0.1,0.035-0.152,0.051c-0.052,0.015-0.104,0.029-0.158,0.041S6.198,11.1,6.143,11.109
		c-0.056,0.009-0.112,0.017-0.17,0.023s-0.117,0.011-0.176,0.014c-0.06,0.003-0.121,0.004-0.183,0.004
		c-0.075,0-0.149-0.002-0.22-0.007s-0.14-0.012-0.208-0.022s-0.133-0.022-0.196-0.037s-0.124-0.032-0.183-0.051
		c-0.059-0.02-0.116-0.042-0.171-0.066c-0.055-0.024-0.108-0.051-0.159-0.081c-0.051-0.03-0.1-0.062-0.147-0.096
		s-0.092-0.071-0.134-0.111s-0.083-0.081-0.121-0.124c-0.037-0.043-0.072-0.088-0.104-0.135s-0.062-0.096-0.088-0.147
		c-0.027-0.051-0.051-0.104-0.072-0.159c-0.021-0.055-0.04-0.112-0.056-0.171c-0.016-0.059-0.029-0.12-0.04-0.183
		C3.704,9.696,3.696,9.632,3.69,9.565C3.686,9.498,3.683,9.429,3.683,9.358c0-0.074,0.003-0.146,0.011-0.217
		C3.7,9.071,3.711,9.003,3.726,8.937c0.014-0.066,0.032-0.13,0.054-0.192s0.046-0.122,0.075-0.18s0.061-0.114,0.097-0.167
		c0.036-0.054,0.075-0.105,0.118-0.155s0.09-0.097,0.14-0.143c0.05-0.046,0.104-0.089,0.162-0.13S4.489,7.89,4.554,7.853
		C4.619,7.816,4.687,7.782,4.759,7.75s0.148-0.062,0.228-0.089c0.08-0.027,0.164-0.052,0.251-0.075s0.179-0.043,0.273-0.061
		c0.095-0.018,0.193-0.033,0.295-0.046s0.208-0.024,0.318-0.032s0.11-0.008,0.11-0.008c0.127-0.005,0.26-0.011,0.295-0.012
		c0.035-0.001,0.092-0.003,0.127-0.004S6.75,7.42,6.785,7.419C6.82,7.417,6.878,7.416,6.913,7.414
		C6.948,7.413,7.005,7.411,7.04,7.41c0.035-0.001,0.093-0.003,0.128-0.005C7.203,7.404,7.26,7.402,7.295,7.401
		s0.093-0.003,0.127-0.004c0.035-0.001,0.064-0.013,0.064-0.026c0-0.013,0-0.034,0-0.047s0-0.034,0-0.047s0-0.034,0-0.047
		s0-0.034,0-0.047s0-0.034,0-0.047s0-0.034,0-0.047s0-0.034,0-0.047c0-0.013,0-0.077-0.001-0.142c0,0,0,0-0.003-0.056
		S7.474,6.736,7.467,6.685s-0.015-0.102-0.025-0.15C7.432,6.487,7.42,6.44,7.407,6.396S7.378,6.311,7.361,6.271
		C7.345,6.23,7.326,6.192,7.306,6.156S7.265,6.085,7.241,6.053S7.193,5.99,7.166,5.962S7.11,5.907,7.08,5.882
		S7.018,5.834,6.984,5.813C6.95,5.792,6.914,5.772,6.877,5.755C6.839,5.737,6.8,5.721,6.759,5.707S6.676,5.681,6.631,5.67
		s-0.09-0.02-0.139-0.027S6.395,5.631,6.343,5.627c-0.051-0.003-0.104-0.005-0.16-0.005c-0.066,0-0.134,0.002-0.201,0.007
		C5.915,5.634,5.846,5.641,5.777,5.65C5.709,5.66,5.64,5.672,5.569,5.687C5.5,5.701,5.429,5.718,5.358,5.737
		c-0.071,0.02-0.143,0.042-0.215,0.065c-0.072,0.024-0.145,0.051-0.217,0.08S4.78,5.943,4.706,5.978
		C4.631,6.011,4.631,6.011,4.631,6.011C4.549,6.053,4.473,6.066,4.463,6.042c-0.01-0.024-0.026-0.063-0.036-0.088
		S4.401,5.891,4.391,5.866S4.365,5.803,4.355,5.778S4.329,5.715,4.319,5.69S4.292,5.627,4.283,5.603S4.256,5.539,4.247,5.515
		S4.221,5.451,4.211,5.427c-0.01-0.024,0.013-0.061,0.051-0.082c0,0,0,0,0.036-0.018C4.334,5.309,4.37,5.292,4.407,5.274
		C4.444,5.257,4.482,5.24,4.521,5.224C4.56,5.208,4.599,5.191,4.639,5.176S4.72,5.145,4.761,5.13
		c0.042-0.015,0.084-0.029,0.127-0.043C4.931,5.073,4.975,5.06,5.019,5.046s0.089-0.026,0.136-0.038s0.092-0.024,0.138-0.035
		s0.092-0.021,0.138-0.03s0.091-0.017,0.137-0.025c0.046-0.008,0.092-0.015,0.137-0.021s0.091-0.012,0.137-0.016
		c0.046-0.004,0.091-0.008,0.137-0.011s0.091-0.005,0.136-0.007C6.16,4.862,6.205,4.862,6.25,4.862c0.061,0,0.119,0.001,0.177,0.004
		C6.484,4.868,6.54,4.872,6.595,4.877s0.108,0.011,0.16,0.019c0.052,0.008,0.102,0.017,0.151,0.026s0.097,0.021,0.143,0.034
		C7.095,4.968,7.14,4.982,7.184,4.997S7.269,5.028,7.31,5.046c0.041,0.018,0.08,0.037,0.118,0.057s0.075,0.042,0.111,0.064
		c0.036,0.023,0.07,0.047,0.104,0.074c0.033,0.026,0.065,0.053,0.097,0.083C7.77,5.353,7.8,5.383,7.829,5.415
		S7.885,5.48,7.911,5.516C7.937,5.55,7.962,5.587,7.986,5.625s0.046,0.077,0.068,0.118c0.021,0.041,0.021,0.041,0.021,0.041
		c0.021,0.047,0.062,0.05,0.089,0.006c0,0,0,0,0.026-0.039C8.217,5.713,8.244,5.676,8.271,5.64C8.3,5.604,8.329,5.568,8.359,5.535
		c0.03-0.034,0.062-0.066,0.094-0.098c0.031-0.031,0.064-0.062,0.099-0.091C8.585,5.318,8.62,5.29,8.656,5.263
		c0.035-0.027,0.072-0.052,0.109-0.077c0.038-0.024,0.076-0.047,0.116-0.07s0.08-0.043,0.121-0.063C9.043,5.034,9.085,5.017,9.127,5
		C9.17,4.983,9.213,4.968,9.256,4.954C9.3,4.94,9.344,4.928,9.39,4.917S9.48,4.896,9.527,4.888s0.094-0.016,0.142-0.021
		s0.097-0.01,0.146-0.013c0.05-0.002,0.1-0.004,0.15-0.004c0.089,0,0.176,0.004,0.26,0.012c0.085,0.008,0.167,0.019,0.247,0.035
		s0.158,0.035,0.233,0.058c0.076,0.023,0.149,0.05,0.221,0.081s0.141,0.065,0.207,0.104c0.067,0.039,0.132,0.081,0.194,0.127
		s0.123,0.097,0.181,0.15c0.059,0.054,0.113,0.112,0.167,0.174s0.104,0.126,0.15,0.193s0.091,0.136,0.131,0.208
		s0.077,0.146,0.11,0.223s0.064,0.156,0.091,0.239s0.05,0.167,0.07,0.254c0.02,0.087,0.036,0.177,0.05,0.269s0.023,0.187,0.03,0.285
		c0.007,0.097,0.007,0.097,0.007,0.097C12.316,7.47,12.317,7.578,12.317,7.599z"/>
</g>
</svg>
