<?xml version="1.0" encoding="utf-8"?>
<!-- Generator: Adobe Illustrator 17.0.1, SVG Export Plug-In . SVG Version: 6.00 Build 0)  -->
<!DOCTYPE svg PUBLIC "-//W3C//DTD SVG 1.1//EN" "http://www.w3.org/Graphics/SVG/1.1/DTD/svg11.dtd">
<svg version="1.1" id="Layer_1" xmlns="http://www.w3.org/2000/svg" xmlns:xlink="http://www.w3.org/1999/xlink" x="0px" y="0px"
	 width="120px" height="104px" viewBox="0 0 120 104" enable-background="new 0 0 120 104" xml:space="preserve">
<path fill-rule="evenodd" clip-rule="evenodd" fill="#667380" d="M117,20h-9V3c0-1.657-1.343-3-3-3H69c-1.657,0-3,1.343-3,3v17H54V3
	c0-1.657-1.343-3-3-3H15c-1.657,0-3,1.343-3,3v17H3c-1.657,0-3,1.343-3,3v78c0,1.657,1.343,3,3,3h114c1.657,0,3-1.343,3-3V23
	C120,21.343,118.657,20,117,20z"/>
</svg>
