<?xml version="1.0" encoding="utf-8"?>
<!-- Generator: Adobe Illustrator 16.0.3, SVG Export Plug-In . SVG Version: 6.00 Build 0)  -->
<!DOCTYPE svg PUBLIC "-//W3C//DTD SVG 1.1//EN" "http://www.w3.org/Graphics/SVG/1.1/DTD/svg11.dtd">
<svg version="1.1" id="Layer_1" xmlns="http://www.w3.org/2000/svg" xmlns:xlink="http://www.w3.org/1999/xlink" x="0px" y="0px"
	 width="16px" height="16px" viewBox="0 0 16 16" enable-background="new 0 0 16 16" xml:space="preserve">
<path fill="#667380" d="M8,2C3.582,2,0,8,0,8s3.582,6,8,6c4.418,0,8-6,8-6S12.418,2,8,2z M6.293,5.254l2.828,2.828
	c-0.781,0.781-2.047,0.782-2.828,0C5.512,7.301,5.512,6.035,6.293,5.254z M8,12.125C4.962,12.125,2.5,8,2.5,8
	s0.843-1.405,2.147-2.575C4.561,5.729,4.5,6.043,4.5,6.375c0,1.933,1.567,3.5,3.5,3.5c1.934,0,3.5-1.567,3.5-3.5
	c0-0.332-0.061-0.646-0.147-0.95C12.656,6.595,13.5,8,13.5,8S11.037,12.125,8,12.125z"/>
</svg>
