<?xml version="1.0" encoding="utf-8"?>


<!-- The icon can be used freely in both personal and commercial projects with no attribution required, but always appreciated. 
You may NOT sub-license, resell, rent, redistribute or otherwise transfer the icon without express written permission from iconmonstr.com -->


<!DOCTYPE svg PUBLIC "-//W3C//DTD SVG 1.1//EN" "http://www.w3.org/Graphics/SVG/1.1/DTD/svg11.dtd">

<svg version="1.1" xmlns="http://www.w3.org/2000/svg" xmlns:xlink="http://www.w3.org/1999/xlink" x="0px" y="0px"

	 width="512px" height="512px" viewBox="0 0 512 512" enable-background="new 0 0 512 512" xml:space="preserve">

<path id="dashboard-2-icon" d="M256,462c-113.589,0-206-92.411-206-206c0-113.588,92.411-206,206-206s206,92.412,206,206

	C462,369.589,369.589,462,256,462z M256,90.117c-91.469,0-165.883,74.415-165.883,165.883c0,91.469,74.414,165.883,165.883,165.883

	S421.883,347.469,421.883,256C421.883,164.532,347.469,90.117,256,90.117z M393.702,214.684c-2.425-7.33-5.401-14.489-8.863-21.321

	l-42.122,18.991c3.721,6.751,6.697,13.905,8.87,21.316L393.702,214.684z M177.864,199.17c4.654-6.067,9.948-11.581,15.771-16.429

	l-32.441-33.792c-5.636,5.04-10.932,10.555-15.771,16.428L177.864,199.17z M207.291,173.176c6.513-3.792,13.414-6.808,20.566-8.989

	l-17.744-44.088c-7.045,2.433-13.949,5.453-20.565,8.992L207.291,173.176z M159.935,235.235c2.064-7.465,4.931-14.667,8.542-21.464

	l-42.396-18.297c-3.373,6.915-6.242,14.118-8.549,21.46L159.935,235.235z M321.896,128.812c-6.64-3.515-13.556-6.505-20.599-8.908

	l-17.575,44.166c7.163,2.152,14.076,5.138,20.602,8.901L321.896,128.812z M366.537,165.378

	c-4.837-5.873-10.134-11.388-15.771-16.428l-32.44,33.792c5.824,4.848,11.116,10.361,15.771,16.429L366.537,165.378z

	 M267.133,112.861c-3.763-0.299-7.506-0.45-11.152-0.45c-3.646,0-7.39,0.151-11.151,0.45v47.785

	c3.702-0.429,7.443-0.646,11.151-0.646s7.45,0.216,11.152,0.646V112.861z M256,349.45c-22.214,0-40.223-18.01-40.223-40.224

	c0-15.161,8.391-28.357,20.778-35.213L256,182.877l19.444,91.137c12.388,6.855,20.779,20.052,20.779,35.213

	C296.224,331.44,278.214,349.45,256,349.45z"/>

</svg>

